nColumns=19
nRows=71
DataType=double
version=3
OpenSimVersion=4.1
endheader
time	ground_force_1_vx	ground_force_1_vy	ground_force_1_vz	ground_force_1_px	ground_force_1_py	ground_force_1_pz	ground_force_1_mx	ground_force_1_my	ground_force_1_mz	ground_force_2_vx	ground_force_2_vy	ground_force_2_vz	ground_force_2_px	ground_force_2_py	ground_force_2_pz	ground_force_2_mx	ground_force_2_my	ground_force_2_mz
3.935	89.7136	828.203	-41.0126	1.42108	0	-0.440574	0	2.36771	0	-0.321578	0.219509	-0.0473115	1.89688	0	-0.569293	0	4.13401e-09	0
3.94	93.5922	827.117	-41.1876	1.42264	0	-0.441865	0	2.40041	0	-0.492799	0.361293	-0.0923142	1.90184	0	-0.568095	0	4.58971e-09	0
3.945	97.428	824.12	-41.1469	1.42426	0	-0.443246	0	2.39608	0	-0.809406	0.642581	-0.194421	1.9059	0	-0.56685	0	3.56005e-09	0
3.95	101.174	819.127	-40.8774	1.42594	0	-0.444698	0	2.35644	0	-1.4071	1.22472	-0.440704	1.90907	0	-0.565586	0	-6.41011e-09	0
3.955	104.912	812.014	-40.3067	1.4277	0	-0.446229	0	2.30327	0	-2.53695	2.46895	-1.06023	1.91136	0	-0.564355	0	-5.56987e-08	0
3.96	108.592	802.611	-39.2597	1.42955	0	-0.447832	0	2.27791	0	-4.60269	5.16759	-2.6203	1.91283	0	-0.563285	0	-2.03894e-07	0
3.965	112.154	790.668	-37.5179	1.43147	0	-0.449426	0	2.27393	0	-7.66035	10.7942	-6.59324	1.91347	0	-0.56247	0	-2.82734e-07	0
3.97	115.789	776.119	-35.4279	1.43342	0	-0.450933	0	2.22336	0	-4.03738	20.78	-11.4335	1.91304	0	-0.562399	0	7.10478e-05	0
3.975	119.081	759.049	-32.5458	1.43533	0	-0.452247	0	2.10058	0	9.47734	34.917	-11.8439	1.91301	0	-0.562611	0	0.000414321	0
3.98	121.976	739.797	-29.1503	1.43714	0	-0.453238	0	1.93276	0	23.577	58.9098	-11.7718	1.91353	0	-0.562653	0	0.00180208	0
3.985	124.509	718.734	-25.9562	1.43881	0	-0.453865	0	1.72766	0	30.5124	109.241	-12.9392	1.91406	0	-0.562664	0	0.00648136	0
3.99	126.133	695.451	-22.415	1.44042	0	-0.454179	0	1.45712	0	22.1668	176.662	-13.6821	1.91459	0	-0.562805	0	0.0222319	0
3.995	126.979	669.172	-18.9688	1.44208	0	-0.454308	0	1.1071	0	13.9269	238.8	-14.8216	1.91562	0	-0.56326	0	0.0702474	0
4	127.017	639.011	-15.9048	1.44389	0	-0.454339	0	0.726429	0	4.90707	286.312	-15.0023	1.91729	0	-0.564151	0	0.172452	0
4.005	125.855	604.159	-12.7828	1.44593	0	-0.454239	0	0.374493	0	-6.70846	319.035	-13.0728	1.91951	0	-0.565406	0	0.317693	0
4.01	123.488	564.977	-9.84828	1.44825	0	-0.453952	0	0.088038	0	-18.2705	340.254	-10.3085	1.92201	0	-0.566812	0	0.482081	0
4.015	120.809	521.33	-6.67095	1.45097	0	-0.453433	0	-0.118302	0	-28.9531	357.704	-7.13639	1.9254	0	-0.568732	0	0.710257	0
4.02	117.616	469.954	-2.99927	1.45442	0	-0.452675	0	-0.24479	0	-39.002	381.904	-4.07822	1.93099	0	-0.571928	0	1.04794	0
4.025	111.812	403.117	0.402848	1.45932	0	-0.45156	0	-0.277295	0	-49.1699	414.644	-0.563111	1.9383	0	-0.575873	0	1.38937	0
4.03	103.764	321.318	4.17365	1.46687	0	-0.449824	0	-0.20503	0	-58.6096	450.39	2.92699	1.94604	0	-0.579406	0	1.69943	0
4.035	94.8879	246.887	7.48828	1.47703	0	-0.447475	0	-0.0821795	0	-67.0199	485.523	5.79008	1.95405	0	-0.582088	0	1.9975	0
4.04	85.2305	203.965	10.2823	1.48431	0	-0.446227	0	-0.00383719	0	-75.9832	520.657	8.75566	1.96304	0	-0.584318	0	2.2029	0
4.045	77.3009	187.315	12.1221	1.48469	0	-0.446554	0	0.000690998	0	-85.408	553.695	12.1276	1.97259	0	-0.586349	0	2.23097	0
4.05	72.6336	175.651	12.3683	1.48522	0	-0.44647	0	0.000119679	0	-93.8518	582.443	15.0643	1.98216	0	-0.587913	0	2.16354	0
4.055	66.4291	171.72	12.6461	1.48574	0	-0.446403	0	8.74165e-05	0	-102.076	607.507	17.3725	1.9914	0	-0.588702	0	2.04246	0
4.06	56.4624	170.287	12.0132	1.48627	0	-0.446344	0	0.000118945	0	-108.855	626.476	19.568	1.9996	0	-0.588861	0	1.93645	0
4.065	47.9962	168.451	10.6778	1.48694	0	-0.446272	0	0.000132149	0	-114.117	640.488	21.3479	2.00663	0	-0.588753	0	2.03257	0
4.07	40.1496	163.245	9.05386	1.48774	0	-0.446177	0	6.2327e-05	0	-118.176	652.66	23.2132	2.0124	0	-0.588616	0	2.28358	0
4.075	32.3241	151.945	7.36228	1.48866	0	-0.446057	0	5.40718e-06	0	-120.742	664.946	25.6574	2.01697	0	-0.588578	0	2.51836	0
4.08	24.173	132.268	6.11981	1.48972	0	-0.445911	0	3.73886e-08	0	-122.407	677.422	28.3717	2.02057	0	-0.588656	0	2.68086	0
4.085	17.6315	105.409	4.19453	1.49097	0	-0.445777	0	2.45386e-11	0	-123.242	690.731	31.2595	2.0234	0	-0.588813	0	2.73596	0
4.09	11.1772	76.3556	1.63859	1.49235	0	-0.445677	0	3.9968e-15	0	-123.169	705.674	34.107	2.02561	0	-0.588983	0	2.64621	0
4.095	2.21679	48.0513	1.7841	1.49372	0	-0.445498	0	0	0	-122.329	722.006	35.9195	2.02727	0	-0.589136	0	2.49353	0
4.1	-7.37251	21.9214	3.57108	1.495	0	-0.445216	0	0	0	-120.665	739.539	36.7722	2.02845	0	-0.5893	0	2.27601	0
4.105	-0.74926	0.814474	0.204607	1.49737	0	-0.445327	0	5.55112e-17	0	-118.25	757.764	37.0912	2.02912	0	-0.589509	0	1.9768	0
4.11	0.0551757	-0.0519024	-0.00991223	1.502	0	-0.445776	0	0	0	-115.561	773.555	36.5262	2.0295	0	-0.589748	0	1.72726	0
4.115	0.142553	-0.12376	-0.0188373	1.50781	0	-0.446162	0	-1.73472e-17	0	-112.554	785.218	35.6323	2.02988	0	-0.589979	0	1.5872	0
4.12	-0.0154224	0.0123486	0.00153108	1.51455	0	-0.446475	0	1.30104e-18	0	-109.362	794.318	35.0552	2.03033	0	-0.590203	0	1.43989	0
4.125	0.0704303	-0.0510378	-0.00428541	1.52252	0	-0.446671	0	-3.46945e-18	0	-106.267	801.434	34.6924	2.03079	0	-0.590436	0	1.24123	0
4.13	0.0415021	-0.0275615	-0.00143325	1.53183	0	-0.446751	0	6.50521e-18	0	-103.221	805.942	34.5604	2.03125	0	-0.590682	0	1.05062	0
4.135	-0.00140435	0.000871173	3.19493e-05	1.54227	0	-0.446786	0	8.02648e-17	0	-100.182	807.767	34.6406	2.03177	0	-0.590933	0	0.857459	0
4.14	-0.055228	0.0321415	0.000853557	1.55375	0	-0.446791	0	7.10152e-16	0	-97.1576	807.251	34.8132	2.03236	0	-0.591185	0	0.623474	0
4.145	-0.0593515	0.0324155	0.000463085	1.56632	0	-0.44674	0	3.61213e-15	0	-94.1599	804.711	35.0643	2.03302	0	-0.591437	0	0.358601	0
4.15	-0.0539672	0.0278455	0.00011334	1.57989	0	-0.44665	0	7.3964e-15	0	-91.1325	800.397	35.4089	2.03377	0	-0.59169	0	0.0749996	0
4.155	-0.0455502	0.0223635	-3.52996e-05	1.59432	0	-0.446557	0	-2.97845e-14	0	-88.0338	794.515	35.7913	2.03461	0	-0.59194	0	-0.217462	0
4.16	-0.0364554	0.0170996	-8.35382e-05	1.60952	0	-0.446469	0	-2.85509e-14	0	-84.9323	787.369	36.1498	2.03555	0	-0.592181	0	-0.510237	0
4.165	-0.0290174	0.0130471	-9.5307e-05	1.62543	0	-0.446387	0	-1.93551e-14	0	-81.8083	779.114	36.3388	2.03658	0	-0.592412	0	-0.791705	0
4.17	-0.0239617	0.0103735	-8.24419e-05	1.64194	0	-0.446326	0	-1.26155e-14	0	-78.6468	769.799	36.275	2.03771	0	-0.592631	0	-1.05531	0
4.175	-0.0208088	0.00870836	-5.77649e-05	1.65895	0	-0.446301	0	-8.28782e-15	0	-75.5325	759.512	35.9561	2.03895	0	-0.592841	0	-1.29335	0
4.18	-0.0191424	0.00776969	-3.14658e-05	1.67639	0	-0.446315	0	-5.49818e-15	0	-72.4595	748.341	35.4044	2.04028	0	-0.59305	0	-1.50424	0
4.185	-0.0187425	0.00740092	-3.68621e-06	1.6942	0	-0.446372	0	-3.49752e-15	0	-69.4623	736.404	34.7355	2.04171	0	-0.593259	0	-1.69428	0
4.19	-0.0195789	0.0075437	3.04116e-05	1.71232	0	-0.446477	0	-1.7331e-15	0	-66.5718	723.843	34.0109	2.04322	0	-0.593468	0	-1.86089	0
4.195	-0.0217735	0.00820681	7.59236e-05	1.73069	0	-0.446631	0	3.45589e-16	0	-63.7486	710.797	33.2498	2.04481	0	-0.593676	0	-1.99923	0
4.2	-0.0256835	0.00949229	0.000140771	1.74929	0	-0.446832	0	3.5152e-15	0	-60.9618	697.41	32.431	2.04647	0	-0.593884	0	-2.11012	0
4.205	-0.0319486	0.0116023	0.000237929	1.76807	0	-0.447078	0	9.26326e-15	0	-58.1781	683.837	31.5266	2.0482	0	-0.594092	0	-2.19351	0
4.21	-0.0416198	0.0148793	0.000387374	1.78704	0	-0.447366	0	2.0601e-14	0	-55.3566	670.188	30.5531	2.04999	0	-0.594305	0	-2.24783	0
4.215	-0.0563206	0.019854	0.000618118	1.80616	0	-0.447689	0	4.41706e-14	0	-52.5081	656.624	29.5969	2.05186	0	-0.594523	0	-2.27618	0
4.22	-0.0785187	0.0273329	0.000973031	1.82544	0	-0.448041	0	9.48991e-14	0	-49.6462	643.284	28.7255	2.05379	0	-0.594749	0	-2.27731	0
4.225	-0.111817	0.0384863	0.00151087	1.84488	0	-0.448416	0	2.06668e-13	0	-46.7888	630.311	28.037	2.05579	0	-0.594979	0	-2.25708	0
4.23	-0.161371	0.0549777	0.00230945	1.86448	0	-0.448807	0	4.57959e-13	0	-43.9774	617.828	27.534	2.05785	0	-0.595206	0	-2.22032	0
4.235	-0.234182	0.0790489	0.00345771	1.88424	0	-0.449208	0	1.03119e-12	0	-41.2377	605.929	27.1767	2.05996	0	-0.595422	0	-2.16625	0
4.24	-0.339391	0.113602	0.00503837	1.90417	0	-0.449611	0	2.35404e-12	0	-38.5913	594.709	26.9267	2.0621	0	-0.595621	0	-2.09657	0
4.245	-0.488032	0.162103	0.00708808	1.92427	0	-0.450007	0	5.42765e-12	0	-36.0696	584.225	26.7207	2.06427	0	-0.595798	0	-2.00887	0
4.25	-0.692835	0.228504	0.00954212	1.94456	0	-0.450388	0	1.26006e-11	0	-33.682	574.545	26.5611	2.06643	0	-0.595952	0	-1.90418	0
4.255	-0.966758	0.316752	0.0121517	1.96504	0	-0.450745	0	2.93601e-11	0	-31.4758	565.746	26.462	2.06856	0	-0.596081	0	-1.78681	0
4.26	-1.32186	0.430441	0.0144339	1.98571	0	-0.451069	0	6.84673e-11	0	-29.4811	557.921	26.4212	2.07062	0	-0.596184	0	-1.65849	0
4.265	-1.76629	0.57187	0.0156054	2.00657	0	-0.451349	0	1.59372e-10	0	-27.6478	551.111	26.4112	2.07259	0	-0.596259	0	-1.51846	0
4.27	-2.30055	0.740941	0.0146461	2.02764	0	-0.451578	0	3.69146e-10	0	-25.994	545.339	26.4022	2.07444	0	-0.596303	0	-1.36758	0
4.275	-2.91312	0.933807	0.0103806	2.04889	0	-0.451748	0	8.48073e-10	0	-24.4691	540.606	26.3338	2.07617	0	-0.596319	0	-1.20612	0
4.28	-3.5842	1.14417	0.00165557	2.07034	0	-0.451852	0	1.92795e-09	0	-23.0215	536.869	26.2024	2.07777	0	-0.596312	0	-1.03569	0
4.285	-4.28555	1.36319	-0.0124423	2.09196	0	-0.451883	0	4.32979e-09	0	-21.6369	534.099	26.0645	2.07926	0	-0.59629	0	-0.858743	0
